<svg><defs>
<svg id="admin_dashboard" viewBox="0 0 24 24" height="24" width="24">
<path d="M12.984 3h8.016v6h-8.016v-6zM12.984 21v-9.984h8.016v9.984h-8.016zM3 21v-6h8.016v6h-8.016zM3 12.984v-9.984h8.016v9.984h-8.016z"></path>
</svg>
<svg id="menu_access" width="512" height="512" viewBox="0 0 512 512">
<path d="M32 96h448v96h-448zM32 224h448v96h-448zM32 352h448v96h-448z"></path>
</svg>
<svg id="location" width="512" height="512" viewBox="0 0 32 32">
<path d="M16 0c-5.523 0-10 4.477-10 10 0 10 10 22 10 22s10-12 10-22c0-5.523-4.477-10-10-10zM16 16c-3.314 0-6-2.686-6-6s2.686-6 6-6 6 2.686 6 6-2.686 6-6 6z"></path>
</svg>
<svg id="package_status" width="512" height="512" viewBox="0 0 32 32">
<path d="M2.005 22.825l13.039 6.169v-13.8l-13.039-5.52v13.151zM6.006 14.791l5.026 2.337-0.029 1.842-5.025-2.336 0.028-1.843zM16 15.194v13.8l12.994-6.169v-13.151l-12.994 5.52zM15.453 3.006l-13.363 5.757 13.375 5.712 13.514-5.725-13.526-5.744z"></path>
</svg>
<svg id="vechile_activity" width="512" height="512" viewBox="0 0 32 32">
<path d="M26.969 13c-0.553 0-1 0-1 0h-1.979l-0.013 1.256c0.598 0.341 0.992 0.989 0.992 1.744l0.042 6.938h-18.98v-6.938c0-0.738 0.404-1.376 1-1.723v-1.277h-2c0 0-0.448 0-1 0-0.553 0-1-0.448-1-1v-1c0-0.553 0.447-1 1-1 0.552 0 1 0 1 0v2h2v-3c0-1.104 0.896-2 2-2h13c1.104 0 2 0.896 2 2l-0.031 3h1.969v-2c0 0 0.447 0 1 0 0.552 0 1 0.447 1 1v1c0 0.552-0.448 1-1 1zM12.031 22h7v-1h-7v1zM12.031 20h7v-1h-7v1zM12.031 18h7v-1h-7v1zM8.031 21c0 0.552 0.447 1 1 1h1c0.552 0 1-0.448 1-1 0-0.553-0.448-1-1-1h-1c-0.552 0-1 0.447-1 1zM22.031 10c0-0.553-0.447-1-1-1h-11c-0.553 0-1 0.447-1 1v5h13v-5zM22.031 20h-1c-0.553 0-1 0.447-1 1 0 0.552 0.447 1 1 1h1c0.552 0 1-0.448 1-1 0-0.553-0.448-1-1-1zM23.031 6h-15c-1.104 0-2 0.896-2 2v-5c0-0.553 0.447-1 1-1h17c0.552 0 1 0.447 1 1v5c0-1.104-0.895-2-2-2zM25.031 24.938c0 0.552-0.448 1-1 1h-17c-0.553 0-1-0.448-1-1 0-0.553 0-1 0-1h19c0 0 0 0.447 0 1zM11.031 29c0 0.552-0.448 1-1 1h-1c-0.553 0-1-0.448-1-1v-2h3v2zM23.031 29c0 0.552-0.448 1-1 1h-1c-0.553 0-1-0.448-1-1v-2h3v2z"></path>
</svg>
<svg id="trip_activity" width="512" height="512" viewBox="0 0 32 32">
<path d="M26 22.563s0-9.563 0-12.563-3-6-6-6c-2 0-2 0-2 0v-4l-6 6 6 6v-4s1 0 2 0 2 1 2 2 0 12.563 0 12.563c-1.188 0.688-2 1.969-2 3.438 0 2.219 1.781 4 4 4s4-1.781 4-4c0-1.469-0.813-2.75-2-3.438zM24 28c-1.094 0-2-0.906-2-2s0.906-2 2-2 2 0.906 2 2-0.906 2-2 2zM10 24s-1 0-2 0-2-1-2-2 0-12.563 0-12.563c1.188-0.688 2-1.969 2-3.438 0-2.219-1.781-4-4-4s-4 1.781-4 4c0 1.469 0.813 2.75 2 3.438 0 0 0 9.563 0 12.563s3 6 6 6c2 0 2 0 2 0v4l6-6-6-6v4zM4 8c-1.094 0-2-0.906-2-2s0.906-2 2-2 2 0.906 2 2-0.906 2-2 2z"></path>
</svg>
<!-- <svg id="density_map" width="512" height="512" viewBox="0 0 32 32">
<path d="M2 0h12v2h-12zM18 0h12v2h-12zM29.75 10h-1.75v-8h-8v8h-8v-8h-8v8h-1.75c-1.238 0-2.25 1.012-2.25 2.25v17.5c0 1.238 1.012 2.25 2.25 2.25h9.5c1.238 0 2.25-1.012 2.25-2.25v-11.75h4v11.75c0 1.238 1.012 2.25 2.25 2.25h9.5c1.238 0 2.25-1.012 2.25-2.25v-17.5c0-1.238-1.012-2.25-2.25-2.25zM10.875 30h-7.75c-0.619 0-1.125-0.45-1.125-1s0.506-1 1.125-1h7.75c0.619 0 1.125 0.45 1.125 1s-0.506 1-1.125 1zM17 16h-2c-0.55 0-1-0.45-1-1s0.45-1 1-1h2c0.55 0 1 0.45 1 1s-0.45 1-1 1zM28.875 30h-7.75c-0.619 0-1.125-0.45-1.125-1s0.506-1 1.125-1h7.75c0.619 0 1.125 0.45 1.125 1s-0.506 1-1.125 1z"></path>
</svg> -->
<svg id="menu_lock" width="512" height="512" viewBox="0 0 32 32">
<path d="M22 14c-1 0-2 0-2 0s0-2 0-6-4-8-8-8-8 4-8 8 0 6 0 6-1 0-2 0-2 1-2 2 0 13 0 14 1 2 2 2 19 0 20 0 2-1 2-2 0-13 0-14-1-2-2-2zM16 18h-12v2h12v2h-12v2h12v2h-12v2h12v2h-14v-14h14v2zM16 14h-8s0-4 0-6 2-4 4-4 4 2 4 4 0 6 0 6z"></path>
</svg>
<svg id="profile" width="512" height="512" viewBox="0 0 32 32">
<path d="M10 6c0-3.314 2.686-6 6-6s6 2.686 6 6c0 3.314-2.686 6-6 6s-6-2.686-6-6zM24.002 14h-1.107l-6.222 12.633 2.327-11.633-3-3-3 3 2.327 11.633-6.222-12.633h-1.107c-3.998 0-3.998 2.687-3.998 6v10h24v-10c0-3.313 0-6-3.998-6z"></path>
</svg>
<svg id="branches" width="512" height="512" viewBox="0 0 32 32">
<path d="M17.997 9.764c0 0.798-0.044 1.494 0.015 2.191 0.087 1.073 0.943 1.828 2.060 1.842 1.306 0.029 2.611 0 3.917 0.014 3.438 0.014 5.977 2.524 6.020 5.991 0.015 1.306 0 2.611 0 3.902 1.668 0.479 1.987 0.914 1.987 2.626 0 0.508 0.014 1.015-0.015 1.523-0.073 1.204-0.798 1.915-2.002 1.929-1.335 0.015-2.655 0.029-3.989 0-1.233-0.029-1.944-0.769-1.958-2.016-0.015-0.508 0-1.015 0-1.523 0-1.451 0.493-2.089 1.915-2.481 0-1.494 0.073-2.974-0.029-4.468-0.058-0.928-0.856-1.48-1.915-1.523-0.725-0.029-1.451 0.015-2.176-0.015-1.262-0.044-2.539-0.102-3.83-0.16 0 1.973 0 4.047 0 6.107 1.697 0.508 1.987 0.885 1.987 2.669 0 0.479 0.015 0.972 0 1.451-0.029 1.146-0.769 1.915-1.915 1.944-1.378 0.029-2.756 0.029-4.134 0-1.19-0.029-1.9-0.798-1.929-2.002-0.014-0.435 0-0.87 0-1.306 0-1.668 0.406-2.234 1.987-2.756 0-2.060 0-4.134 0-6.064-2.060 0.044-4.091 0.058-6.122 0.131-1.030 0.044-1.77 0.653-1.813 1.625-0.087 1.436-0.014 2.887-0.014 4.323 1.61 0.406 1.944 0.841 1.944 2.553 0 0.508 0.014 1.015 0 1.523-0.029 1.175-0.711 1.944-1.871 1.973-1.407 0.044-2.8 0.044-4.207 0-1.088-0.029-1.799-0.74-1.871-1.828-0.058-0.769-0.044-1.552 0-2.321 0.073-1.102 0.58-1.581 1.973-1.9 0-1.219 0-2.437 0-3.67 0-3.743 2.481-6.238 6.194-6.238 1.204 0 2.423 0.014 3.627 0 1.436-0.014 2.191-0.769 2.205-2.205 0-0.58 0-1.161 0-1.784-0.218-0.029-0.406-0.058-0.595-0.058-1.117 0-2.22 0-3.337 0-1.32 0-2.045-0.682-2.060-1.973-0.029-1.335-0.029-2.655 0-3.989 0.014-1.175 0.783-1.987 1.944-2.002 4.033-0.029 8.080-0.029 12.113 0 1.146 0.014 1.828 0.74 1.857 1.9 0.044 1.407 0.044 2.8 0 4.207-0.029 1.146-0.798 1.842-1.973 1.857-1.291 0.014-2.597 0-3.989 0z"></path>
</svg>
<!-- <svg id="consumers" width="512" height="512" viewBox="0 0 32 32">
<path d="M14.318 9.608l14.619-4.389-0.192-0.64c-0.21-0.704-0.96-1.106-1.664-0.896l-12.059 3.621c-0.704 0.21-1.106 0.96-0.896 1.664l0.192 0.64z"></path>
<path d="M31.287 13.832c-0.567-0.064-1.573 0.503-1.573 0.503l-2.779 1.326c-0.485 0.283-0.96 0.558-0.997 0.567-0.594 0.183-0.96 0.64-0.96 0.64 0 0.75-0.119 1.353-0.777 1.966-0.302 0.283-0.75 0.485-1.216 0.64-1.024 0.329-1.984 0.521-3.913 0.485-0.914-0.018-1.765-0.265-4.389-0.485-0.603-0.055-0.987-0.037-0.933-0.146 0.174-0.32 5.486 0.229 6.117 0.192 2.039-0.11 3.648-0.64 4.059-1.143 0.43-0.512 0.521-1.134 0.293-1.509-0.265-0.439-0.887-0.667-2.853-0.759-0.987-0.046-1.874-0.137-2.761-0.137-0.329 0-0.722-0.082-1.17-0.238-2.889-1.253-6.61-2.597-9.426-0.43-0.219 0.174-0.421 0.357-0.613 0.558s-0.366 0.421-0.53 0.649c-0.229 0.238-0.521 0.521-0.878 0.85-0.21 0.192-0.53 0.448-0.923 0.731l4.187 5.979c0.265-0.201 0.53-0.393 0.795-0.585l0.64-0.457c0.558-0.393 1.216-0.603 1.893-0.603h4.882l1.189-0.128c0.841-0.091 1.673-0.283 2.469-0.576l0.887-0.32 2.496-0.896c0.009 0 0.018-0.009 0.027-0.009 1.435-0.521 2.77-1.289 3.959-2.258l0.832-0.686c0.293-0.293 1.143-0.978 1.682-1.408 0.384-0.302 0.686-0.695 0.869-1.143 0.055-0.137 0.091-0.265 0.091-0.347 0.018-0.32-0.11-0.759-0.677-0.823z"></path>
<path d="M0.055 20.159l5.778 8.503 3.593-3.063-5.513-7.881-3.858 2.441zM6.638 24.996c0.439 0 0.795 0.357 0.795 0.795s-0.357 0.795-0.795 0.795c-0.439 0-0.795-0.357-0.795-0.795s0.357-0.795 0.795-0.795z"></path>
<path d="M15.662 14.088c0.777 0.274 1.499 0.576 2.094 0.832 0.448 0.146 0.713 0.183 0.859 0.183 0.585 0 1.152 0.037 1.755 0.073 0.338 0.018 0.686 0.046 1.042 0.064 0.073 0 0.146 0.009 0.219 0.009l8.183-2.45c0.704-0.21 1.106-0.96 0.896-1.664l-1.362-4.535-14.619 4.389 0.933 3.099zM25.957 10.486c0.137-0.046 0.283-0.046 0.421-0.018-0.082-0.677 0.338-1.326 1.006-1.527 0.759-0.229 1.554 0.201 1.774 0.96 0.229 0.759-0.201 1.554-0.96 1.774-0.393 0.119-0.795 0.055-1.125-0.128-0.073 0.302-0.293 0.558-0.613 0.649-0.466 0.137-0.969-0.128-1.106-0.594-0.137-0.485 0.137-0.978 0.603-1.115z"></path>
</svg> -->
<svg id="consumers" width="512" height="512" viewBox="0 0 32 32">
<path d="M18 22.082v-1.649c2.203-1.241 4-4.337 4-7.432 0-4.971 0-9-6-9s-6 4.029-6 9c0 3.096 1.797 6.191 4 7.432v1.649c-6.784 0.555-12 3.888-12 7.918h28c0-4.030-5.216-7.364-12-7.918z"></path>
</svg>
<svg id="masterdata" width="512" height="512" viewBox="0 0 32 32">
<path d="M12 30c-6.626 0-12-1.793-12-4 0-1.207 0-2.527 0-4 0-0.348 0.174-0.678 0.424-1 1.338 1.723 5.99 3 11.576 3s10.238-1.277 11.576-3c0.25 0.322 0.424 0.652 0.424 1 0 1.158 0 2.387 0 4 0 2.207-5.375 4-12 4zM12 22c-6.626 0-12-1.793-12-4 0-1.208 0-2.526 0-4 0-0.212 0.080-0.418 0.188-0.622v0c0.061-0.128 0.141-0.254 0.236-0.378 1.338 1.722 5.99 3 11.576 3s10.238-1.278 11.576-3c0.096 0.124 0.176 0.25 0.236 0.378v0c0.107 0.204 0.188 0.41 0.188 0.622 0 1.158 0 2.386 0 4 0 2.207-5.375 4-12 4zM12 14c-6.626 0-12-1.792-12-4 0-0.632 0-1.3 0-2 0-0.636 0-1.296 0-2 0-2.208 5.374-4 12-4s12 1.792 12 4c0 0.624 0 1.286 0 2 0 0.612 0 1.258 0 2 0 2.208-5.375 4-12 4zM12 4c-4.418 0-8 0.894-8 2s3.582 2 8 2 8-0.894 8-2-3.582-2-8-2z"></path>
</svg>
<svg id="settings" width="512" height="512" viewBox="0 0 32 32">
<path d="M13.998 10.938c-2.794 0-5.061 2.267-5.061 5.063 0 2.793 2.267 5.064 5.061 5.064s5.045-2.271 5.045-5.064c-0-2.796-2.25-5.063-5.045-5.063zM24.145 18.908l-0.912 2.197 1.842 3.617-2.256 2.256-3.701-1.748-2.197 0.902-1.115 3.414-0.143 0.453h-3.188l-1.38-3.854-2.197-0.906-3.622 1.834-2.255-2.254 1.746-3.703-0.905-2.195-3.86-1.26v-3.187l3.856-1.382 0.905-2.193-1.622-3.202-0.214-0.42 2.252-2.252 3.706 1.745 2.194-0.907 1.114-3.412 0.144-0.452h3.188l1.381 3.858 2.191 0.907 3.627-1.838 2.254 2.252-1.746 3.7 0.902 2.198 3.867 1.258v3.186l-3.855 1.387z"></path>
</svg>
<svg id="location" width="512" height="512" viewBox="0 0 32 32">
<path d="M16 0c-5.523 0-10 4.477-10 10 0 10 10 22 10 22s10-12 10-22c0-5.523-4.477-10-10-10zM16 16.125c-3.383 0-6.125-2.742-6.125-6.125s2.742-6.125 6.125-6.125 6.125 2.742 6.125 6.125-2.742 6.125-6.125 6.125zM12.125 10c0-2.14 1.735-3.875 3.875-3.875s3.875 1.735 3.875 3.875c0 2.14-1.735 3.875-3.875 3.875s-3.875-1.735-3.875-3.875z"></path>
</svg>
<svg id="vehicle_information" width="512" height="512" viewBox="0 0 32 32">
<path d="M24.832 11.445c-0.186-0.278-0.498-0.445-0.832-0.445h-1c-0.553 0-1 0.447-1 1v6c0 0.553 0.447 1 1 1h4c0.553 0 1-0.447 1-1v-1.5c0-0.197-0.059-0.391-0.168-0.555l-3-4.5zM27 18h-4v-6h1l3 4.5v1.5zM31.496 15.336l-4-6c-0.558-0.837-1.492-1.336-2.496-1.336h-4v-2c0-1.654-1.346-3-3-3h-15c-1.654 0-3 1.346-3 3v11c0 1.654 1.346 3 3 3v0 3c0 1.654 1.346 3 3 3h1.142c0.447 1.721 2 3 3.859 3 1.857 0 3.41-1.279 3.857-3h5.282c0.447 1.721 2 3 3.859 3 1.857 0 3.41-1.279 3.857-3h1.144c1.654 0 3-1.346 3-3v-6c0-0.594-0.174-1.17-0.504-1.664zM3 18c-0.552 0-1-0.447-1-1v-11c0-0.553 0.448-1 1-1h15c0.553 0 1 0.447 1 1v11c0 0.553-0.447 1-1 1h-15zM11.001 27c-1.105 0-2-0.896-2-2s0.895-2 2-2c1.104 0 2 0.896 2 2s-0.897 2-2 2zM24 27c-1.105 0-2-0.896-2-2s0.895-2 2-2c1.104 0 2 0.896 2 2s-0.896 2-2 2zM30 23c0 0.553-0.447 1-1 1h-1.143c-0.447-1.721-2-3-3.857-3-1.859 0-3.412 1.279-3.859 3h-5.282c-0.447-1.721-2-3-3.857-3-1.859 0-3.412 1.279-3.859 3h-1.143c-0.552 0-1-0.447-1-1v-3h13c1.654 0 3-1.346 3-3v-7h4c0.334 0 0.646 0.167 0.832 0.445l4 6c0.109 0.164 0.168 0.358 0.168 0.555v6z"></path>
</svg>
<svg id="density_map" width="512" height="512" viewBox="0 0 32 32">
<path d="M16 0c-8.837 0-16 7.163-16 16s7.163 16 16 16 16-7.163 16-16-7.163-16-16-16zM3 16c0-7.18 5.82-13 13-13 3.424 0 6.538 1.325 8.86 3.488l-12.86 5.512-5.512 12.86c-2.164-2.322-3.488-5.436-3.488-8.86zM18.286 18.286l-8.003 3.43 3.43-8.003 4.573 4.573zM16 29c-3.424 0-6.539-1.325-8.86-3.488l12.86-5.512 5.512-12.86c2.164 2.322 3.488 5.436 3.488 8.86 0 7.18-5.82 13-13 13z"></path>
</svg>
<svg id="user_management" width="512" height="512" viewBox="0 0 32 32">
<path d="M24 12h-20c-2.208 0-4 1.792-4 4v2c0 1.477 0.808 2.752 2 3.445v6.555h8v4h8v-4h8v-6.555c1.191-0.693 2-1.967 2-3.445v-2c0-2.208-1.793-4-4-4zM8 26h-4v-8h-2v-2c0-1.104 0.897-2 2-2h2.554c-0.344 0.59-0.554 1.268-0.554 2v4c0 1.477 0.808 2.752 2 3.445v2.555zM18 22v-4h-2v12h-4v-12h-2v4c-1.104 0-2-0.895-2-2v-4c0-1.104 0.896-2 2-2h8c1.105 0 2 0.896 2 2v4c0 1.105-0.895 2-2 2zM26 18h-2v8h-4v-2.555c1.191-0.693 2-1.967 2-3.445v-4c0-0.732-0.211-1.41-0.555-2h2.555c1.105 0 2 0.896 2 2v2zM9.49 9.918c1.1 1.266 2.702 2.082 4.51 2.082s3.41-0.816 4.51-2.082c0.682 1.236 1.98 2.082 3.49 2.082 2.207 0 4-1.792 4-4s-1.793-4-4-4c-0.801 0-1.543 0.24-2.168 0.646-0.617-2.66-2.986-4.646-5.832-4.646s-5.216 1.986-5.832 4.646c-0.626-0.406-1.368-0.647-2.168-0.647-2.208 0-4 1.792-4 4s1.792 4 4 4c1.51 0 2.808-0.846 3.49-2.082zM22 6c1.105 0 2 0.894 2 2s-0.895 2-2 2c-1.104 0-2-0.894-2-2s0.896-2 2-2zM14 2c2.207 0 4 1.792 4 4s-1.793 4-4 4c-2.208 0-4-1.792-4-4s1.792-4 4-4zM6 10c-1.104 0-2-0.894-2-2s0.896-2 2-2c1.106 0 2 0.894 2 2s-0.894 2-2 2z"></path>
</svg>
<svg id="reports" width="512" height="512" viewBox="0 0 32 32">
<path d="M30 2c-1 0-27 0-28 0s-2 1-2 2 0 17 0 18 1 2 2 2 10 0 10 0-6 2-6 4c0 1 1 2 2 2s15 0 16 0 2-1 2-2c0-2-6-4-6-4s9 0 10 0 2-1 2-2 0-17 0-18-1-2-2-2zM30 22h-28v-18h28v18zM28 6h-6c-12 2-16.938 9.375-18 12v2h24v-14z"></path>
</svg>



</defs></svg>
